<svg width="181" height="51" viewBox="0 0 181 51" fill="none" xmlns="http://www.w3.org/2000/svg">
<path fill-rule="evenodd" clip-rule="evenodd" d="M42.2345 9.51551C42.2345 14.7708 37.9742 19.031 32.719 19.031C31.6387 19.031 30.6005 18.851 29.6327 18.5194L29.6335 18.5205L29.6134 18.5127C29.5393 18.4871 29.4655 18.4606 29.3922 18.4333C28.1602 18.0218 25.3737 17.5602 22.6061 19.2207C19.669 20.983 19.487 24.2465 19.487 24.2465V24.2484L19.4773 24.2327L19.4751 24.2603L19.485 24.2465C19.485 24.2465 19.1468 28.4 22.2105 30.6943C25.2742 32.9886 28.1936 32.2627 29.2933 31.9127L29.2834 31.9265C30.3494 31.5131 31.5045 31.2778 32.7169 31.2778C37.9721 31.2778 42.2324 35.5381 42.2324 40.7933C42.2324 46.0481 37.9727 50.3082 32.7179 50.3088C27.4632 50.3082 23.2034 46.0481 23.2034 40.7933C23.2034 40.7019 23.2094 40.612 23.2154 40.5222C23.2192 40.4662 23.2229 40.4104 23.2252 40.3542L23.2133 40.372C23.2133 40.372 23.2192 40.3384 23.2291 40.2889C23.2449 39.9863 23.2746 39.6857 23.3181 39.391C23.3597 38.0895 23.0926 35.7378 20.9744 33.8806C17.4221 30.7675 13.3813 32.415 13.3813 32.415L13.3912 32.4012C12.335 32.8047 11.1938 33.0361 9.9972 33.0361C4.74201 33.0361 0.481689 28.7758 0.481689 23.5206C0.481689 18.2654 4.74201 14.0051 9.9972 14.0051C11.4714 14.0051 12.8673 14.3403 14.1128 14.9387C15.0463 15.2828 17.2134 15.7677 19.7936 14.2444C23.4368 12.0925 23.1975 8.59562 23.1975 8.59562L23.2411 8.6629C23.6723 3.80708 27.7511 0 32.719 0C37.9742 0 42.2345 4.26024 42.2345 9.51551ZM16.1563 43.1036C16.1563 47.1388 12.8852 50.4099 8.85005 50.4099C4.81493 50.4099 1.54382 47.1388 1.54382 43.1036C1.54382 39.0685 4.81493 35.7974 8.85005 35.7974C12.8852 35.7974 16.1563 39.0685 16.1563 43.1036ZM8.85 11.4321C12.0069 11.4321 14.566 8.87291 14.566 5.71603C14.566 2.55916 12.0069 0 8.85 0C5.69313 0 3.13397 2.55916 3.13397 5.71603C3.13397 8.87291 5.69313 11.4321 8.85 11.4321ZM30.935 25.1762C30.935 27.528 29.0284 29.4346 26.6766 29.4346C24.3248 29.4346 22.4183 27.528 22.4183 25.1762C22.4183 22.8244 24.3248 20.9179 26.6766 20.9179C29.0284 20.9179 30.935 22.8244 30.935 25.1762Z" fill="#8530D1"/>
<path d="M176.979 16.0468C178.978 16.0468 180.598 14.4263 180.598 12.4273C180.598 10.4283 178.978 8.80783 176.979 8.80783C174.98 8.80783 173.359 10.4283 173.359 12.4273C173.359 14.4263 174.98 16.0468 176.979 16.0468Z" fill="#29264A"/>
<path d="M62.4106 33.7447V39.9374H56.8884V8.80783H62.4106V26.213L69.4815 18.3886H77.0963L69.0622 26.7985L77.5551 39.9374H70.5258L65.1697 30.8571L62.4086 33.7447H62.4106Z" fill="#29264A"/>
<path d="M98.6867 39.937H93.4137V37.971C92.0747 39.5197 90.1917 40.4394 87.933 40.4394C82.8281 40.4394 79.4401 36.632 79.4401 30.9832V18.3882H84.9623V30.9832C84.9623 32.1976 85.3816 35.2099 88.9793 35.2099C91.4477 35.2099 93.1625 33.3685 93.1625 30.9832V18.3882H98.6847V39.937H98.6867Z" fill="#29264A"/>
<path d="M112.451 40.4397C106.97 40.4397 102.911 37.552 102.241 32.908H107.848C108.602 34.7494 110.819 35.4179 112.451 35.4179C114.668 35.4179 116.341 34.7494 116.341 33.4935C116.341 32.2375 115.587 31.7786 111.822 31.1912C107.973 30.6058 102.826 29.5595 102.826 24.7473C102.826 21.3573 105.797 17.8426 112.031 17.8426C116.968 17.8426 120.651 20.5206 121.363 24.5792H115.631C115.297 23.5745 114.082 22.7794 112.033 22.7794C109.482 22.7794 108.436 23.6991 108.436 24.4942C108.436 25.6235 110.026 26.0013 112.704 26.4186C118.06 27.2968 121.909 28.4697 121.909 33.1552C121.909 37.4235 117.975 40.4358 112.453 40.4358L112.451 40.4397Z" fill="#29264A"/>
<path d="M146.593 39.9369H141.32V37.6347C139.646 39.391 137.344 40.3958 134.71 40.3958C129.102 40.3958 124.458 35.5421 124.458 29.1832C124.458 22.8244 129.102 17.9272 134.71 17.9272C137.346 17.9272 139.646 18.932 141.32 20.6883V18.3861H146.593V39.9349V39.9369ZM135.546 23.0321C132.492 23.0321 130.024 25.7101 130.024 29.2248C130.024 32.7394 132.492 35.2909 135.546 35.2909C138.6 35.2909 141.068 32.5713 141.068 29.2248C141.068 25.8782 138.6 23.0321 135.546 23.0321Z" fill="#29264A"/>
<path d="M170.944 28.432H165.422V27.3441C165.422 26.0882 165.046 23.0759 161.405 23.0759C158.936 23.0759 157.222 24.9173 157.222 27.3441V39.9392H151.699V18.3903H156.972V20.4829C158.353 18.8512 160.236 17.8464 162.538 17.8464C167.601 17.8464 170.948 21.6538 170.948 27.3441V28.432H170.944Z" fill="#29264A"/>
<path d="M179.898 39.937H174.376V18.3882H179.898V39.937Z" fill="#29264A"/>
</svg>
